<?xml version="1.0" encoding="UTF-8"?>
<svg id="Layer_2" data-name="Layer 2" xmlns="http://www.w3.org/2000/svg" viewBox="0 0 365.78 58.29">
  <path d="M30.11,9.78c.05-1.62.03-4.19.03-6.01-2.43,0-4.67-.01-7.12,0s-5.12.05-7.41.67-5.47,2.89-6.51,5.02c-.61,1.25-1.26,2.36-1.47,4.09-.39,3.25-.47,5.88-.42,9.14-2.69.17-4.42.1-7.13.17,0,1.69-.08,3.82-.08,5.51,2.47-.04,4.94-.02,7.42.04.03,8.77-.12,16.9-.16,25.78,3.12-.04,6.27.1,9.39.16.05-8.71.08-17.21,0-26.12,3.52.09,7.06-.11,10.55-.06,0-1.76.03-3.08.03-4.84-.73,0-9.6.15-10.66.07-.11-3.26-.17-6.68.68-9.83.27-1,.47-2.18,1.31-2.79,1.49-1.08,3.01-1.07,4.81-1.06s4.93.07,6.76.06Z"/>
  <path d="M91.11,57.04h-16.88c-9.64,0-17.48-7.84-17.48-17.48v-19.22c0-9.64,7.84-17.48,17.48-17.48h16.88c9.64,0,17.48,7.84,17.48,17.48v19.22c0,9.64-7.84,17.48-17.48,17.48ZM74.23,7.85c-6.88,0-12.48,5.6-12.48,12.48v19.22c0,6.88,5.6,12.48,12.48,12.48h16.88c6.88,0,12.48-5.6,12.48-12.48v-19.22c0-6.88-5.6-12.48-12.48-12.48h-16.88Z"/>
  <path d="M262.65,58.29h-39.17c-8.82,0-15.99-7.17-15.99-15.99v-22.95c0-8.82,7.17-15.99,15.99-15.99h39.17c8.82,0,15.99,7.17,15.99,15.99v22.95c0,8.82-7.17,15.99-15.99,15.99ZM223.48,8.35c-6.06,0-10.99,4.93-10.99,10.99v22.95c0,6.06,4.93,10.99,10.99,10.99h39.17c6.06,0,10.99-4.93,10.99-10.99v-22.95c0-6.06-4.93-10.99-10.99-10.99h-39.17Z"/>
  <path d="M82.67,44.35c-7.08,0-12.83-5.76-12.83-12.83s5.76-12.83,12.83-12.83,12.83,5.76,12.83,12.83-5.76,12.83-12.83,12.83ZM82.67,23.68c-4.32,0-7.83,3.51-7.83,7.83s3.51,7.83,7.83,7.83,7.83-3.51,7.83-7.83-3.51-7.83-7.83-7.83Z"/>
  <circle cx="311" cy="5.31" r="5.31"/>
  <circle cx="95.56" cy="15.46" r="3.77"/>
  <polygon points="257.13 31.65 237.63 42.91 237.63 20.4 257.13 31.65"/>
  <rect x="304.98" y="15.4" width="12.91" height="39.41"/>
  <path d="M349.33,25.65c1.98.96,3.53,3.79,3.55,5.78.1,7.38.29,15.23.27,22.77,0,.23.2.42.43.42,4.08.03,7.65-.04,11.73,0,.23,0,.43-.18.43-.42,0-7.65.05-15.65.02-23.3-.01-2.55-.43-5.07-1.1-7.54-.33-1.22-1.14-3.38-1.84-4.46-.87-1.34-.72-1.33-2.19-2.47-.97-.76-2.03-1.51-3.11-2.1-1.98-1.1-3.69-1.11-5.79-1.24-3.46-.22-8.49,1.4-11.04,3.75-.72.66-1.37,1.39-1.9,2.2-.23.35-.77.2-.77-.22-.01-1.18,0-2.5-.04-3.54,0-.22-.19-.39-.42-.39l-11.75-.22c-.24,0-.43.18-.43.42,0,12.76.18,26.39.17,39.15,0,.23.18.41.4.42,3.99.22,8.02.17,12,.11.23,0,.41-.19.42-.42.17-7.84-.03-15.26.89-22.84.01-.09.02-.19.04-.28.47-3.24,2.77-5.5,5.99-6.06.57-.1,1.74-.15,2.44-.09"/>
  <path d="M167.95,21.32c3.36,2.85,8.07,4.15,12.45,3.69-.03-2.99.03-5.97.05-8.95-3.97-.17-7.84-2-10.51-4.94-.88-.97-1.65-2.09-1.97-3.36-.32-1.23-.2-2.53-.09-3.79h-9.03c-.05,11.97-.06,24.04-.11,36.02,0,1.66-.48,3.3-1.43,4.66-.33.48-.7.9-1.08,1.12-1.33.79-2.86,1.14-4.38,1.42h0c-4.71.85-8.82-3.19-8.11-7.92.14-.91.14-1.84.61-2.64s1.01-1.5,1.74-2.02c2.03-1.45,4.49-2.22,6.98-2.2-.06-2.93-.02-5.88.1-8.8-4.14-.82-9.06.62-12.39,3.2-2.89,2.23-4.39,4.23-5.36,7.39-.65,2.13-.99,5.73-.85,7.95.09,1.34,1.23,4.46,1.87,5.7,1.93,3.74,4.15,5.95,8.03,7.44,1.32.51,2.53.79,3.83,1s2.69.28,4.04.2,2.58-.27,3.78-.61c1.05-.29,2.02-.81,2.88-1.47,2.69-2.08,5.2-4.6,6.62-7.7,1.66-3.62,1.73-7.75,1.77-11.74.05-4.34.5-9.29.54-13.63Z"/>
</svg>